<svg width="576" height="617" viewBox="0 0 576 617" fill="none" xmlns="http://www.w3.org/2000/svg">
<path d="M110.953 10.3587C110.953 5.56166 109.925 2.8205 107.869 2.13523H109.925C109.925 2.13523 109.925 1.44993 109.925 0.0793284C109.925 2.1352 110.61 3.16314 111.98 3.16314L110.953 5.21904C113.008 7.27487 114.036 9.33073 114.036 11.3866C114.036 15.4983 114.379 17.8968 115.064 18.5821C113.694 17.2115 113.008 15.4983 113.008 13.4424C113.008 11.3866 112.323 10.3587 110.953 10.3587ZM110.953 11.3866C110.953 12.0719 110.61 12.4145 109.925 12.4145C109.925 11.7292 110.267 11.3866 110.953 11.3866ZM66.7515 12.4145C67.4368 13.0998 67.7794 14.1277 67.7794 15.4983C67.0941 14.813 66.7515 13.7851 66.7515 12.4145ZM110.953 12.4145C110.953 12.4145 110.61 12.7572 109.925 13.4424C109.925 13.4424 109.925 13.0998 109.925 12.4145H110.953ZM65.7236 15.4983C65.0383 15.4983 64.6956 15.1557 64.6956 14.4704C64.6956 13.7851 65.0383 13.7851 65.7236 14.4704V15.4983ZM62.6398 14.4704C63.3251 14.4704 63.3251 14.813 62.6398 15.4983L60.5839 14.4704H62.6398ZM105.813 15.4983V14.4704H106.841L105.813 15.4983ZM121.232 19.6101C119.861 18.9248 119.176 18.2395 119.176 17.5542C119.861 16.1836 120.204 15.1557 120.204 14.4704L121.232 16.5263C120.547 17.2115 120.547 18.2395 121.232 19.6101ZM105.813 15.4983L106.841 16.5263L105.813 15.4983ZM194.215 304.347C192.159 304.347 190.446 303.319 189.075 301.263V300.235L185.991 298.179C184.621 298.179 183.936 297.494 183.936 296.123L179.824 294.068L175.712 290.984C175.027 290.984 173.999 290.299 172.628 288.928L169.545 285.844V289.956L168.517 296.123L169.545 299.207C169.545 301.263 169.202 302.976 168.517 304.347C167.831 305.717 167.489 307.773 167.489 310.515L168.517 315.654C168.517 319.081 168.174 322.164 167.489 324.906C166.118 331.073 165.776 335.527 166.461 338.269L165.433 343.408L166.461 346.492C166.461 348.548 166.118 350.261 165.433 351.632C164.748 354.373 164.748 356.429 165.433 357.799C165.433 359.855 164.748 361.568 163.377 362.939V368.079C163.377 371.505 163.034 373.561 162.349 374.246C163.034 374.932 163.377 376.645 163.377 379.386C163.377 380.756 162.349 384.526 160.293 390.693C160.293 391.378 160.636 391.721 161.321 391.721C160.636 392.406 160.293 394.12 160.293 396.861C160.293 400.287 159.951 402.343 159.265 403.028C159.265 403.714 159.608 404.056 160.293 404.056C159.608 404.742 159.608 405.769 160.293 407.14V409.196C158.923 413.308 158.237 416.734 158.237 419.475C156.867 424.957 156.181 427.699 156.181 427.699C157.552 430.44 157.895 432.496 157.209 433.866L155.154 439.006C155.154 439.691 155.496 440.034 156.181 440.034L157.209 442.09L155.154 444.146L156.181 446.201C154.811 447.572 154.126 448.6 154.126 449.285C153.44 449.97 153.44 450.656 154.126 451.341V453.397C154.126 454.082 153.783 454.425 153.098 454.425L152.07 456.481L153.098 460.592C153.783 461.963 153.098 463.334 151.042 464.704V472.928L152.07 474.983L151.042 477.039L150.014 480.123V481.151L151.042 485.263C151.042 487.319 150.357 489.032 148.986 490.402L147.958 498.626C147.273 503.423 147.615 506.849 148.986 508.905C151.727 508.905 153.098 509.933 153.098 511.989C153.098 512.674 152.755 513.017 152.07 513.017L150.014 515.073C147.958 519.184 147.273 522.268 147.958 524.324C147.958 525.695 148.301 526.38 148.986 526.38L150.014 528.436C150.014 528.436 149.329 529.121 147.958 530.492L145.902 534.603L147.958 538.715C147.273 540.771 145.217 541.799 141.79 541.799V543.855C136.993 545.225 134.252 549.337 133.567 556.19L132.539 558.246C131.169 560.302 125.686 564.071 116.092 569.553H114.036L106.841 572.637L100.673 573.665L92.4498 574.693L84.2263 576.749L78.0587 575.721C75.3176 575.035 72.9191 575.035 70.8632 575.721L59.556 571.609L48.2487 568.525H45.1649C43.1091 566.469 41.3959 565.099 40.0253 564.413L32.8298 561.33C32.1445 561.33 31.8018 560.987 31.8018 560.302C31.8018 559.616 31.4592 559.274 30.7739 559.274L23.5784 554.134C22.8931 551.393 20.8372 547.967 17.4108 543.855L9.18736 533.576V532.548C8.50207 531.862 8.15943 531.177 8.15943 530.492C8.15943 529.121 7.81679 528.093 7.1315 527.408L5.07564 523.296C3.70506 521.926 3.01978 520.212 3.01978 518.157V514.045L1.99184 509.933C2.67713 509.248 2.67713 507.877 1.99184 505.821C1.30656 505.136 0.963916 504.108 0.963916 502.738L4.04771 495.542L3.01978 491.43L6.10357 489.374L9.18736 487.319C9.18736 485.263 9.53001 483.892 10.2153 483.207C14.327 483.207 16.7255 482.864 17.4108 482.179C18.7814 480.808 18.0961 479.095 15.3549 477.039L14.327 474.983C13.6417 474.298 14.6697 473.956 17.4108 473.956C19.4667 473.27 20.8372 471.557 21.5225 468.816C22.2078 466.76 23.5784 463.334 25.6343 458.537L28.718 450.313C28.718 448.943 29.0607 447.915 29.746 447.229C29.0607 445.859 29.4033 444.488 30.7739 443.118L31.8018 441.062C31.8018 441.062 32.4871 437.635 33.8577 430.782L36.9415 421.531V419.475C36.9415 414.678 37.9694 411.252 40.0253 409.196V408.168C40.0253 406.797 40.7106 404.742 42.0812 402C42.7664 401.315 43.1091 399.944 43.1091 397.889V390.693L44.137 388.637C44.8223 387.952 45.1649 386.581 45.1649 384.526C44.4797 383.84 44.8223 381.784 46.1929 378.358C47.5635 376.987 47.5635 375.959 46.1929 375.274L49.2767 363.967C49.2767 357.799 49.6193 354.03 50.3046 352.66L51.3325 350.604V347.52C51.3325 343.408 52.0178 339.982 53.3884 337.241C54.0737 335.87 54.4163 332.786 54.4163 327.989C55.1016 327.304 55.4443 325.591 55.4443 322.85L56.4722 318.738V315.654L58.528 302.291C59.8986 300.235 59.8986 298.179 58.528 296.123V289.956L60.5839 285.844L59.556 279.677L61.6118 267.341L60.5839 257.062L62.6398 252.95L61.6118 250.895C60.9266 250.209 60.9266 248.839 61.6118 246.783V243.699L62.6398 235.476V214.917C63.3251 212.176 63.6677 208.407 63.6677 203.61C62.9824 201.554 62.6398 199.155 62.6398 196.414V184.079C62.6398 177.911 62.2971 173.8 61.6118 171.744V160.437L60.5839 153.241L61.6118 145.018L63.6677 143.99C63.6677 143.304 63.3251 142.962 62.6398 142.962C61.9545 142.962 61.6118 142.619 61.6118 141.934C62.2971 141.249 62.9824 140.906 63.6677 140.906L65.7236 118.291C65.7236 117.606 65.7236 117.606 65.7236 118.291C66.4089 118.291 66.7515 118.291 66.7515 118.291V111.096C68.1221 107.669 68.1221 104.928 66.7515 102.872L67.7794 96.7049C67.0941 96.7049 66.7515 96.3622 66.7515 95.6769H67.7794V86.4255V82.3138C67.0941 80.9433 67.0941 79.9153 67.7794 79.23L68.8074 76.1462V75.1183C68.1221 75.8036 67.7794 75.8036 67.7794 75.1183L66.7515 73.0625H67.7794C68.4647 72.3772 68.8074 71.3492 68.8074 69.9786L67.7794 67.9228L68.8074 63.8111C68.8074 62.4405 68.4647 61.4125 67.7794 60.7273C70.5206 63.4684 73.2617 64.839 76.0029 64.839C76.6882 64.1537 77.0308 62.4405 77.0308 59.6994C75.6602 58.3288 75.6602 56.9582 77.0308 55.5876C74.9749 45.9936 73.6044 39.826 72.9191 37.0849C72.9191 36.3996 72.5764 36.0569 71.8912 36.0569C71.8912 31.2599 71.5485 28.1761 70.8632 26.8056L67.7794 16.5263L71.8912 26.8056L73.947 35.029C73.947 39.826 75.3176 45.9936 78.0587 53.5318V59.6994C78.744 61.0699 79.0867 63.8111 79.0867 67.9228C80.4572 71.3492 83.1984 72.0345 87.3101 69.9786C87.9954 69.2934 88.338 67.5802 88.338 64.839C87.6528 64.1537 87.3101 62.7831 87.3101 60.7273C89.366 58.6714 90.7366 58.3288 91.4218 59.6994C92.7924 62.4405 93.4777 65.8669 93.4777 69.9786C94.163 70.6639 94.5056 72.3772 94.5056 75.1183L96.5615 79.23C95.8762 79.9153 95.8762 80.258 96.5615 80.258V82.3138L99.6453 84.3697L101.701 83.3418L103.757 73.0625C105.813 69.636 106.498 66.5522 105.813 63.8111L109.925 60.7273L107.869 52.5038C107.869 51.8185 108.211 51.4759 108.897 51.4759L106.841 41.1966C105.47 39.1407 105.47 36.3996 106.841 32.9731C106.841 32.9731 107.526 35.029 108.897 39.1408C108.897 43.2525 109.239 45.9936 109.925 47.3642C109.925 48.0495 110.61 48.3921 111.98 48.3921V56.6155C112.666 57.9861 113.008 60.7273 113.008 64.839C115.75 64.839 117.12 64.1537 117.12 62.7832L118.148 64.839H119.176V69.9786C120.547 70.6639 121.574 70.6639 122.26 69.9786C120.889 68.6081 120.889 67.2375 122.26 65.8669V63.8111L121.232 60.7273V58.6714L120.204 57.6435L121.232 55.5876C121.232 52.8465 120.889 51.1332 120.204 50.448C118.833 49.0774 118.148 48.0495 118.148 47.3642L119.176 43.2525C120.547 41.8819 120.547 40.8539 119.176 40.1687L121.232 41.1966V42.2245C121.232 47.0215 122.26 50.448 124.316 52.5038L126.371 60.7273L130.483 59.6994L129.455 55.5876H127.399C127.399 52.8465 127.057 50.7906 126.371 49.4201C125.686 48.0495 125.686 46.6789 126.371 45.3083C127.057 43.9378 127.742 43.2525 128.427 43.2525V42.2245H127.399L128.427 40.1687C127.742 39.4834 127.742 39.1408 128.427 39.1408C127.057 37.7702 126.371 35.3716 126.371 31.9452L123.288 25.7776C124.658 26.4629 125.686 28.1761 126.371 30.9173C127.742 33.6584 128.427 36.0569 128.427 38.1128C128.427 38.7981 128.77 38.7981 129.455 38.1128L130.483 39.1408L129.455 42.2245C129.455 42.9098 130.141 43.9378 131.511 45.3083L132.539 47.3642C131.854 48.0495 131.854 49.0774 132.539 50.448C134.595 52.5038 135.28 53.8744 134.595 54.5597C135.28 54.5597 136.308 55.245 137.679 56.6155L139.735 55.5876C139.735 54.9023 140.077 54.9023 140.763 55.5876C140.077 55.5876 139.735 55.9303 139.735 56.6155C139.735 57.3009 140.42 57.6435 141.79 57.6435C141.105 59.0141 141.448 61.4126 142.818 64.839C142.818 65.5243 143.161 65.5243 143.846 64.839C143.846 64.1537 144.189 64.1537 144.874 64.839C144.189 65.5243 143.846 66.5522 143.846 67.9228C144.532 68.6081 145.217 69.2934 145.902 69.9786L146.93 77.1742C146.93 77.8595 147.273 77.8595 147.958 77.1742C148.643 77.8595 148.986 78.8874 148.986 80.258V83.3418C151.727 84.027 152.412 85.7403 151.042 88.4814C152.412 88.4814 153.098 87.4535 153.098 85.3976C154.468 86.0829 154.126 87.4535 152.07 89.5094L156.181 96.7049L159.265 106.984C159.265 107.669 159.608 108.012 160.293 108.012C160.978 108.012 160.978 108.355 160.293 109.04C160.293 109.725 160.636 109.725 161.321 109.04C161.321 117.263 162.349 122.06 164.405 123.431L163.377 124.459C164.062 124.459 164.405 125.144 164.405 126.515C164.405 127.885 164.748 128.913 165.433 129.599C166.118 130.284 166.461 131.997 166.461 134.738C165.09 136.794 165.09 138.507 166.461 139.878C166.461 141.249 166.118 141.934 165.433 141.934L166.461 145.018C166.461 147.073 166.118 148.444 165.433 149.129H166.461V150.157V151.185C166.461 154.612 166.803 157.01 167.489 158.381H168.517V159.409L169.545 158.381C170.23 158.381 170.23 158.723 169.545 159.409L170.573 158.381L172.628 160.437C173.314 161.122 174.684 161.122 176.74 160.437L174.684 162.492H176.74L177.768 161.465C177.768 162.15 178.111 162.835 178.796 163.52C179.481 164.206 180.167 164.548 180.852 164.548V165.576C182.222 165.576 182.908 165.919 182.908 166.604C184.964 167.289 188.39 170.031 193.187 174.828L195.243 176.883L198.327 177.911C200.383 179.967 202.438 180.995 204.494 180.995C204.494 183.051 206.207 184.079 209.634 184.079C210.319 184.079 210.662 184.422 210.662 185.107C210.662 185.792 211.004 185.792 211.69 185.107C212.375 185.107 213.403 185.792 214.774 187.163C215.459 187.848 216.829 188.191 218.885 188.191C218.885 190.247 220.598 191.275 224.025 191.275C224.025 192.645 224.368 193.33 225.053 193.33L227.109 192.302L228.137 194.358C228.137 195.044 228.479 195.386 229.165 195.386H232.248C234.99 198.127 237.388 199.498 239.444 199.498H240.472V200.526H242.528L244.584 201.554C244.584 202.239 245.269 202.582 246.639 202.582H247.667V203.61C248.353 203.61 249.038 203.952 249.723 204.638C251.094 204.638 251.779 204.98 251.779 205.666C254.52 204.98 256.576 206.351 257.947 209.777V208.749C258.632 209.435 259.66 209.777 261.03 209.777C262.401 209.777 263.086 210.12 263.086 210.805V209.777H264.114C264.114 210.463 264.8 210.805 266.17 210.805L270.282 212.861C271.652 214.232 272.338 215.26 272.338 215.945C273.708 214.574 274.736 214.574 275.421 215.945L277.477 216.973L279.533 215.945V216.973C279.533 217.658 279.876 217.658 280.561 216.973C281.246 216.973 281.589 217.315 281.589 218.001C280.904 218.686 280.904 219.029 281.589 219.029H283.645V221.085C285.015 221.085 286.043 220.742 286.729 220.057C287.414 220.057 287.757 221.085 287.757 223.14L289.813 222.112C289.813 222.798 290.155 223.14 290.84 223.14H293.924V224.168H297.008C298.379 224.168 299.064 224.854 299.064 226.224L303.176 227.252C304.546 228.623 306.259 228.623 308.315 227.252C309.001 224.511 310.028 223.14 311.399 223.14C312.084 223.14 312.427 223.483 312.427 224.168L311.399 226.224C313.455 228.28 314.825 229.308 315.511 229.308C315.511 229.308 315.853 228.965 316.539 228.28C317.224 227.595 317.909 227.252 318.595 227.252L319.622 229.308C318.937 229.993 318.937 230.679 319.622 231.364C320.308 231.364 320.993 231.021 321.678 230.336C321.678 229.651 322.021 229.308 322.706 229.308C323.392 229.993 323.049 232.049 321.678 235.476C320.308 238.902 321.336 241.3 324.762 242.671V243.699C325.447 244.384 325.79 245.755 325.79 247.811C325.79 249.181 325.105 252.608 323.734 258.09L321.678 260.146L320.65 266.313C319.965 268.369 318.937 270.083 317.567 271.453L314.483 278.649L311.399 284.816L304.204 296.123L289.813 315.654C289.813 316.339 289.47 316.682 288.785 316.682C286.729 318.053 285.015 319.766 283.645 321.822L279.533 326.961C278.163 328.332 277.135 329.017 276.449 329.017L271.31 335.185C269.254 335.87 263.429 339.982 253.835 347.52C253.15 348.205 252.122 348.548 250.751 348.548L246.639 350.604L244.584 351.632H241.5C240.814 352.317 240.129 352.317 239.444 351.632L235.332 352.66L233.276 350.604C232.591 351.289 231.906 351.289 231.22 350.604L232.248 345.464C231.563 345.464 231.22 345.122 231.22 344.436L234.304 338.269C234.304 337.583 233.276 337.926 231.22 339.297C229.85 340.667 229.507 340.325 230.193 338.269C230.878 336.213 230.878 334.842 230.193 334.157L228.137 333.129L226.081 330.045C225.396 330.045 224.71 329.703 224.025 329.017C223.34 328.332 222.997 327.647 222.997 326.961C222.312 327.647 221.969 326.961 221.969 324.906L218.885 322.85L214.774 319.766C212.718 319.766 211.347 318.395 210.662 315.654C210.662 315.654 209.977 315.312 208.606 314.626C207.235 313.256 206.55 312.57 206.55 312.57L205.522 311.542C204.837 312.228 204.152 312.228 203.466 311.542V310.515V309.487H202.438C201.068 309.487 200.383 309.144 200.383 308.459L198.327 307.431C196.956 306.06 196.271 305.375 196.271 305.375L194.215 304.347ZM46.1929 17.5542C45.5076 17.5542 45.1649 17.5542 45.1649 17.5542C45.8502 16.8689 46.1929 16.5263 46.1929 16.5263V17.5542ZM101.701 17.5542C103.072 17.5542 103.757 18.2395 103.757 19.6101L101.701 17.5542ZM116.092 19.6101C115.407 20.2953 115.064 20.2953 115.064 19.6101C115.064 18.9248 115.407 18.5821 116.092 18.5821C116.777 18.5821 117.12 18.9248 117.12 19.6101C117.12 20.2953 116.777 20.2953 116.092 19.6101ZM85.2543 28.8614C85.2543 28.1761 84.9116 27.8335 84.2263 27.8335L83.1984 28.8614L82.1705 27.8335H83.1984L84.2263 25.7776H83.1984L84.2263 24.7497C82.8557 24.7497 82.8557 24.0644 84.2263 22.6938C84.2263 21.3233 83.8837 20.2953 83.1984 19.6101C84.569 20.9806 85.2543 22.6938 85.2543 24.7497L86.2822 29.8894C85.5969 29.8894 85.2543 29.5467 85.2543 28.8614ZM122.26 22.6938C121.574 22.6938 121.232 21.6659 121.232 19.6101C121.917 20.2953 122.26 21.3233 122.26 22.6938ZM103.757 22.6938C104.442 22.6938 104.442 22.3512 103.757 21.6659L104.785 22.6938H103.757ZM105.813 29.8894C104.442 29.2041 104.1 26.8055 104.785 22.6938C105.47 23.3791 105.813 24.407 105.813 25.7776C104.442 27.1482 104.442 28.5188 105.813 29.8894ZM123.288 23.7217C123.973 23.7217 124.316 24.407 124.316 25.7776L123.288 23.7217ZM76.0029 28.8614C74.6323 27.4908 73.947 26.1203 73.947 24.7497L76.0029 28.8614ZM82.1705 28.8614H83.1984H82.1705ZM66.7515 30.9173C66.0662 31.6026 65.7236 31.6026 65.7236 30.9173C66.4089 30.232 66.7515 29.8894 66.7515 29.8894V30.9173ZM74.9749 29.8894C75.6602 29.8894 76.0029 30.232 76.0029 30.9173C76.6882 30.9173 76.6882 31.2599 76.0029 31.9452C75.3176 31.9452 75.3176 31.6026 76.0029 30.9173L74.9749 29.8894ZM562.214 593.196L557.075 576.749C557.075 576.749 556.389 573.322 555.019 566.469C554.333 564.413 553.648 562.7 552.963 561.33C552.278 559.274 551.592 557.561 550.907 556.19L547.823 540.771C546.453 537.345 543.711 536.659 539.6 538.715V540.771C539.6 542.827 539.942 544.197 540.628 544.883C541.313 546.253 541.656 547.967 541.656 550.022C540.97 550.708 539.257 551.05 536.516 551.05L533.432 539.743C533.432 538.373 532.062 535.289 529.32 530.492L530.348 528.436C529.663 528.436 529.32 528.093 529.32 527.408C528.635 526.723 527.265 526.38 525.209 526.38L523.153 527.408V531.52C523.153 534.261 522.81 536.659 522.125 538.715C521.44 541.456 521.44 544.54 522.125 547.967L518.013 552.078L521.097 560.302C520.412 560.302 520.069 560.644 520.069 561.33C520.069 562.015 520.754 564.413 522.125 568.525C524.181 571.952 524.866 575.721 524.181 579.832L522.125 571.609L520.069 564.413L518.013 563.386C518.013 560.644 517.671 558.246 516.985 556.19C515.615 552.078 514.929 549.337 514.929 547.967C514.244 547.281 513.216 547.281 511.846 547.967C511.16 548.652 510.818 549.337 510.818 550.022L509.79 547.967C509.104 547.967 508.762 548.309 508.762 548.994C508.762 545.568 508.419 543.512 507.734 542.827C507.734 542.142 507.391 541.799 506.706 541.799C506.021 541.799 505.678 542.142 505.678 542.827V550.022C505.678 550.708 506.021 551.05 506.706 551.05L507.734 553.106C507.049 553.106 506.706 553.449 506.706 554.134C506.706 554.134 507.049 554.477 507.734 555.162C508.419 555.162 508.762 555.505 508.762 556.19L507.734 558.246C507.734 560.302 509.104 562.7 511.846 565.441C511.846 566.812 511.503 567.84 510.818 568.525C510.132 570.581 510.132 571.952 510.818 572.637C509.447 572.637 508.762 571.952 508.762 570.581V568.525L505.678 560.302L502.594 553.106L498.483 555.162C499.168 555.847 499.51 556.875 499.51 558.246H501.566L504.65 568.525C503.28 569.896 502.252 570.581 501.566 570.581V571.609C501.566 570.924 501.909 570.924 502.594 571.609C501.909 572.294 501.909 572.637 502.594 572.637V573.665C502.594 573.665 503.28 575.721 504.65 579.832C506.021 583.944 507.049 586.343 507.734 587.028C506.363 585.657 504.307 581.888 501.566 575.721V574.693C500.881 575.378 500.538 575.378 500.538 574.693V573.665C500.538 571.609 499.853 569.896 498.483 568.525L496.427 563.386C494.371 561.33 493.685 559.959 494.371 559.274C493 559.274 491.972 558.931 491.287 558.246C490.602 558.246 490.259 558.589 490.259 559.274C489.574 559.959 488.888 559.959 488.203 559.274H489.231V558.246L487.175 557.218L485.119 550.022V551.05C484.434 551.736 484.091 551.736 484.091 551.05C484.091 548.309 483.064 546.939 481.008 546.939C482.378 545.568 482.378 544.197 481.008 542.827C480.322 542.142 479.98 541.114 479.98 539.743C479.98 539.058 479.637 538.715 478.952 538.715C478.267 539.4 477.924 539.4 477.924 538.715C477.239 538.03 476.896 536.659 476.896 534.603C474.84 533.233 473.812 531.52 473.812 529.464C473.127 529.464 472.784 530.149 472.784 531.52C472.099 531.52 472.099 531.177 472.784 530.492V528.436C467.987 522.954 464.903 517.814 463.533 513.017L461.477 511.989C460.792 511.989 460.792 511.646 461.477 510.961V509.933C460.792 509.933 460.449 510.276 460.449 510.961C460.449 509.59 459.764 507.192 458.393 503.766C457.708 500.339 456.337 497.941 454.281 496.57C454.967 495.885 455.309 495.885 455.309 496.57C455.309 497.255 455.652 497.255 456.337 496.57C455.652 495.885 455.309 494.857 455.309 493.486L453.254 492.458C453.254 486.291 452.226 482.864 450.17 482.179C450.17 480.808 450.512 479.78 451.198 479.095C448.457 478.41 447.771 476.354 449.142 472.928C447.086 467.445 443.66 455.11 438.863 435.922C436.807 426.328 433.723 414.336 429.611 399.944V397.889C429.611 395.833 428.241 390.693 425.499 382.47V379.386C425.499 379.386 424.814 378.701 423.444 377.33V375.274L419.332 381.442L414.192 386.581C412.822 390.008 411.451 392.064 410.08 392.749L405.969 396.861L402.885 400.972C402.885 403.028 402.2 404.742 400.829 406.112L397.745 408.168L396.717 410.224L394.661 413.308L388.494 420.503L383.354 427.699C383.354 428.384 382.326 428.727 380.27 428.727V431.81L376.159 435.922C374.103 437.293 372.39 439.006 371.019 441.062L364.851 447.229L359.712 454.425C357.656 455.11 355.6 456.481 353.544 458.537C351.488 460.592 350.118 462.648 349.433 464.704L334.014 479.095L329.902 483.207L325.79 486.291C325.105 487.661 322.364 490.06 317.567 493.486L315.511 492.458C314.825 492.458 314.825 492.801 315.511 493.486V494.514L313.455 493.486L309.343 496.57L308.315 497.598L298.036 502.738C297.351 503.423 297.008 503.423 297.008 502.738V501.71L286.729 508.905L281.589 510.961H280.561L279.533 511.989L274.394 515.073L269.254 519.184C268.569 518.499 267.883 518.499 267.198 519.184C266.513 519.184 266.17 519.527 266.17 520.212L265.142 521.24V520.212C264.457 520.212 263.086 521.24 261.03 523.296C258.975 523.296 257.261 523.981 255.891 525.352C256.576 522.611 256.233 519.87 254.863 517.129C254.178 515.758 253.15 515.758 251.779 517.129L247.667 519.184C244.926 521.926 240.814 525.009 235.332 528.436C234.647 528.436 234.647 528.779 235.332 529.464C232.591 530.149 230.193 531.52 228.137 533.576L220.941 538.715L233.276 528.436L239.444 524.324L245.611 518.157C249.038 518.157 251.779 516.786 253.835 514.045C256.576 511.304 256.233 508.22 252.807 504.793C251.436 504.793 250.408 505.136 249.723 505.821L246.639 508.905C244.584 507.535 243.556 506.164 243.556 504.793C244.241 503.423 246.297 501.71 249.723 499.654C251.779 498.283 253.492 496.227 254.863 493.486L256.919 492.458L255.891 489.374L254.863 487.319C254.178 488.004 251.779 488.347 247.667 488.347C242.87 489.717 240.129 490.745 239.444 491.43L235.332 488.347L230.193 492.458H229.165C224.368 497.255 220.598 499.654 217.857 499.654L222.997 495.542L227.109 492.458V490.402L236.36 484.235C236.36 483.55 236.017 482.864 235.332 482.179C234.647 480.808 233.962 480.466 233.276 481.151L234.304 480.123H233.276L237.388 477.039V476.011L235.332 474.983L231.22 477.039C230.535 477.039 230.193 477.725 230.193 479.095H229.165H228.137V480.123C227.451 480.123 227.109 480.466 227.109 481.151L225.053 482.179C222.312 484.92 220.599 485.948 219.913 485.263L217.857 486.291C217.172 485.605 217.172 484.92 217.857 484.235C219.228 483.55 219.913 483.207 219.913 483.207L224.025 478.067L227.109 474.983C227.109 474.298 226.423 473.27 225.053 471.9L222.997 473.956V474.983L217.857 480.123C216.487 478.753 215.801 477.725 215.801 477.039C215.116 477.725 214.774 477.725 214.774 477.039C214.774 475.669 215.801 473.956 217.857 471.9L218.885 469.844C218.885 469.159 219.228 468.816 219.913 468.816C219.228 468.131 218.885 467.103 218.885 465.732C218.885 465.047 218.543 464.704 217.857 464.704C217.172 464.704 216.829 464.362 216.829 463.676C216.829 462.991 217.172 462.991 217.857 463.676V461.62C219.913 461.62 221.284 460.592 221.969 458.537C221.284 458.537 220.941 458.194 220.941 457.509C222.312 457.509 222.997 456.481 222.997 454.425L225.053 453.397L227.109 452.369C227.794 451.684 227.794 450.998 227.109 450.313H226.081C227.451 448.943 228.479 448.257 229.165 448.257C229.165 445.516 229.85 444.146 231.22 444.146C229.85 442.775 229.165 442.775 229.165 444.146C229.165 443.46 229.85 443.118 231.22 443.118C231.22 443.118 231.906 441.062 233.276 436.95C234.647 433.524 236.017 431.468 237.388 430.782V429.754V428.727L241.5 425.643C242.87 424.272 243.213 422.559 242.528 420.503L244.584 421.531L245.611 419.475C246.982 419.475 246.982 418.79 245.611 417.419H246.639V416.391L248.695 415.363C249.381 415.363 249.723 414.336 249.723 412.28H251.779C251.779 410.224 252.807 409.196 254.863 409.196L263.086 400.972L267.198 395.833L271.31 391.721L279.533 383.498L281.589 381.442L283.645 378.358L286.729 374.246C288.785 373.561 290.155 372.19 290.84 370.135L292.896 367.051L293.924 364.995L295.98 363.967C296.665 363.282 296.665 362.596 295.98 361.911C300.092 357.799 302.833 353.688 304.204 349.576C306.259 348.891 307.63 347.52 308.315 345.464L310.371 341.352L312.427 340.325C313.112 340.325 313.455 339.982 313.455 339.297V337.241C314.826 335.87 315.853 335.185 316.539 335.185C317.909 333.814 318.595 332.786 318.595 332.101L319.622 330.045C318.937 329.36 318.937 328.675 319.622 327.989L323.734 322.85C325.79 320.794 327.161 318.738 327.846 316.682C327.846 315.997 328.189 315.654 328.874 315.654C329.559 315.654 329.902 315.312 329.902 314.626V311.542L334.014 306.403L335.041 304.347C335.727 304.347 336.069 304.004 336.069 303.319L338.125 300.235C338.125 299.55 338.811 298.522 340.181 297.151C340.181 293.725 342.237 290.641 346.349 287.9L345.321 286.872C346.691 286.872 347.377 285.844 347.377 283.788L349.433 280.704V279.677C350.118 278.991 350.46 277.963 350.46 276.593C353.202 275.222 354.915 273.166 355.6 270.425L358.684 266.313C357.313 264.943 357.999 262.544 360.74 259.118L361.768 257.062C361.082 257.062 360.74 256.719 360.74 256.034L362.796 255.006V253.978C362.796 253.293 363.138 252.95 363.824 252.95C365.194 252.95 365.879 252.265 365.879 250.895C365.194 250.895 364.851 250.552 364.851 249.867C366.907 249.867 367.935 248.496 367.935 245.755C367.935 244.384 368.963 243.699 371.019 243.699L372.047 238.559L373.075 236.503C372.39 235.818 372.39 235.133 373.075 234.448H374.103V233.42L376.159 229.308C376.159 228.623 376.844 227.595 378.215 226.224C378.215 224.854 379.243 223.14 381.298 221.085C381.984 219.029 381.984 216.63 381.298 213.889C379.243 212.518 378.215 211.148 378.215 209.777C378.215 209.092 378.557 208.749 379.243 208.749C380.613 209.435 382.326 208.749 384.382 206.693C385.067 206.008 385.41 204.98 385.41 203.61L384.382 200.526L387.466 198.47C388.151 198.47 388.494 198.127 388.494 197.442C389.179 196.757 389.179 196.072 388.494 195.386C387.809 194.701 387.466 194.016 387.466 193.33C388.151 192.645 389.179 192.302 390.55 192.302C391.235 192.988 392.263 193.33 393.634 193.33V187.163C392.263 185.792 391.578 184.764 391.578 184.079C390.892 183.394 390.892 182.708 391.578 182.023V178.939L392.606 175.856L391.578 172.772L392.606 168.66C392.606 166.604 392.263 165.234 391.578 164.548C390.207 163.178 390.207 161.465 391.578 159.409L389.522 152.213L388.494 148.101C387.809 147.416 387.809 146.731 388.494 146.046V145.018V143.99C388.494 141.934 388.151 140.221 387.466 138.85C386.095 137.479 386.095 135.766 387.466 133.71L386.438 129.599C386.438 126.858 386.781 124.459 387.466 122.403C387.466 118.977 386.095 116.921 383.354 116.236C379.928 116.236 378.215 115.55 378.215 114.18L380.27 110.068L381.298 104.928V99.7887L378.215 96.7049C378.215 96.0196 378.9 94.9916 380.27 93.6211C382.326 90.8799 381.984 88.8241 379.243 87.4535L377.187 86.4255C377.187 85.055 377.872 84.027 379.243 83.3418C380.613 81.9712 381.641 81.2859 382.326 81.2859V79.23C385.753 77.1742 387.466 72.7198 387.466 65.8669L388.494 62.7832C389.179 60.042 393.634 55.245 401.857 48.3921L403.913 47.3642L410.08 42.2245C411.451 42.2245 412.479 41.8819 413.164 41.1966C413.85 40.5113 414.877 40.1687 416.248 40.1687L423.444 37.0849L431.667 34.0011C432.352 33.3158 434.408 32.9731 437.835 32.9731C441.261 32.9731 443.317 32.6305 444.002 31.9452L468.672 34.0011H470.728C471.414 34.6864 473.812 35.029 477.924 35.029C481.35 35.7143 483.406 36.7422 484.091 38.1128C485.462 38.7981 486.49 39.4834 487.175 40.1687L495.399 42.2245C496.084 44.2804 499.168 47.0215 504.65 50.448C508.762 53.1891 511.846 56.2729 513.901 59.6994C513.901 60.3846 514.244 60.7273 514.929 60.7273L518.013 64.839L520.069 68.9507C522.125 69.636 523.153 71.0066 523.153 73.0625L524.181 77.1742C524.866 77.8595 525.209 79.23 525.209 81.2859L528.292 88.4814C529.663 89.1667 529.663 90.1946 528.292 91.5652L527.265 95.6769L528.292 99.7887C528.292 100.474 526.922 102.187 524.181 104.928L525.209 106.984L524.181 109.04C520.754 109.725 518.356 110.753 516.985 112.124C516.3 112.809 517.328 113.837 520.069 115.208C522.125 117.263 521.782 118.634 519.041 119.319C516.985 120.005 515.957 122.061 515.957 125.487V131.655L513.901 140.906C513.901 142.276 514.244 143.304 514.929 143.99C514.929 146.046 514.587 147.759 513.901 149.129C514.587 149.815 514.244 151.87 512.874 155.297C512.874 159.409 513.216 162.835 513.901 165.576C514.587 168.317 514.244 171.744 512.874 175.856C513.559 176.541 513.901 177.911 513.901 179.967C513.901 181.338 513.216 184.079 511.846 188.191C512.531 188.876 512.874 190.247 512.874 192.302L511.846 200.526C513.216 204.638 513.901 207.036 513.901 207.721L512.874 209.777L513.901 212.861L514.929 216.973L513.901 219.029C512.531 220.399 512.531 221.77 513.901 223.14V225.196C513.901 226.567 514.587 229.993 515.957 235.476C516.643 240.273 516.643 244.042 515.957 246.783V249.867L516.985 256.034C517.671 258.775 517.671 261.174 516.985 263.23C517.671 265.286 518.013 271.453 518.013 281.732C519.384 285.844 520.069 291.326 520.069 298.179C520.069 300.235 521.097 304.347 523.153 310.515L522.125 314.626L524.181 320.794L526.237 333.129L529.32 343.408L528.292 347.52L529.32 349.576C531.376 354.373 532.404 359.513 532.404 364.995C532.404 366.365 533.775 373.561 536.516 386.581C536.516 387.952 537.201 390.693 538.572 394.805L540.628 404.056L545.767 429.754C549.879 442.09 551.935 450.998 551.935 456.481L550.907 458.537C550.907 459.222 551.25 459.222 551.935 458.537C551.935 458.537 551.935 458.879 551.935 459.564C552.62 460.25 552.62 460.592 551.935 460.592C551.25 460.592 550.907 460.935 550.907 461.62L552.963 484.235C552.278 484.235 551.935 484.577 551.935 485.263C551.935 488.004 552.963 493.486 555.019 501.71V507.877C555.019 508.563 555.361 508.563 556.047 507.877V508.905C555.361 508.905 555.019 509.248 555.019 509.933V510.961C557.075 519.184 558.102 524.667 558.102 527.408V530.492L559.13 531.52V533.576H558.102L560.158 539.743V542.827C559.473 544.883 559.473 546.253 560.158 546.939C558.102 544.883 555.361 543.855 551.935 543.855C551.25 544.54 551.25 545.911 551.935 547.967C553.305 550.708 553.305 552.764 551.935 554.134C553.991 558.246 555.704 565.099 557.075 574.693C557.075 575.378 557.417 575.721 558.102 575.721C558.102 577.091 558.788 580.518 560.158 586L562.214 593.196ZM120.204 38.1128C118.833 38.1128 118.148 37.7701 118.148 37.0849H120.204V38.1128ZM137.679 64.839C139.049 63.4684 139.049 62.4405 137.679 61.7552C136.993 61.0699 136.993 60.3846 137.679 59.6994C136.993 58.3288 136.651 57.6435 136.651 57.6435C136.651 57.6435 135.966 56.9582 134.595 55.5876C133.224 54.2171 132.196 53.8744 131.511 54.5597C132.196 55.245 131.854 56.2729 130.483 57.6435C131.169 58.3288 131.854 58.3288 132.539 57.6435C133.224 57.6435 133.567 57.9862 133.567 58.6714C132.882 59.3567 132.882 60.3846 133.567 61.7552C134.252 62.4405 134.595 63.4684 134.595 64.839H137.679ZM117.12 59.6994C117.12 59.0141 117.12 58.6714 117.12 58.6714C117.12 56.6156 116.777 55.245 116.092 54.5597L117.12 55.5876C117.12 56.9582 117.463 57.9862 118.148 58.6714L117.12 59.6994ZM54.4163 56.6155C53.731 57.3009 53.731 57.9862 54.4163 58.6714L53.3884 57.6435V55.5876C54.0737 55.5876 54.4163 55.9303 54.4163 56.6155ZM82.1705 65.8669C81.4852 65.1816 81.4852 64.4964 82.1705 63.8111V65.8669ZM82.1705 65.8669C82.8557 66.5522 83.1984 67.5802 83.1984 68.9507C82.5131 68.2655 82.1705 67.2375 82.1705 65.8669ZM164.405 72.0345L162.349 67.9228L164.405 72.0345ZM147.958 76.1462C147.958 76.1462 147.958 75.8036 147.958 75.1183V76.1462ZM162.349 83.3418C162.349 84.7123 162.006 85.3976 161.321 85.3976V84.3697C161.321 83.6844 161.664 83.3418 162.349 83.3418ZM59.556 111.096C60.2413 111.096 60.5839 111.781 60.5839 113.152L59.556 111.096ZM164.405 124.459V123.431V124.459ZM165.433 124.459C164.748 125.144 164.405 125.144 164.405 124.459H165.433ZM168.517 149.129C167.831 149.129 167.489 148.787 167.489 148.101C168.174 148.101 168.517 148.444 168.517 149.129ZM219.913 435.922C219.913 435.237 220.256 434.894 220.941 434.894C221.626 435.579 221.284 435.922 219.913 435.922ZM222.997 436.95C222.997 436.265 222.997 436.265 222.997 436.95C223.682 436.95 224.025 436.95 224.025 436.95C223.34 437.635 222.997 437.635 222.997 436.95ZM213.746 441.062C213.06 440.376 212.718 440.034 212.718 440.034C213.403 439.349 214.088 439.006 214.774 439.006L213.746 441.062ZM226.081 464.704H225.053V463.676C225.053 463.676 224.71 463.676 224.025 463.676C223.34 462.991 222.997 462.991 222.997 463.676L220.941 464.704C221.626 465.389 221.626 466.075 220.941 466.76C220.941 466.76 220.599 466.76 219.913 466.76L220.941 468.816C220.256 469.501 220.256 470.186 220.941 470.872H224.025L221.969 468.816C222.654 469.501 223.682 469.159 225.053 467.788L226.081 465.732V464.704ZM213.746 476.011C213.746 476.697 214.088 477.039 214.774 477.039C214.088 477.725 214.088 478.067 214.774 478.067C214.088 478.067 213.746 478.41 213.746 479.095C213.746 479.78 213.403 479.78 212.718 479.095C212.718 479.78 211.69 480.808 209.634 482.179C207.578 482.864 206.207 484.235 205.522 486.291L208.606 481.151L211.69 478.067V477.039L213.746 476.011ZM231.22 482.179C231.906 482.179 232.248 481.836 232.248 481.151C232.248 482.522 231.906 483.207 231.22 483.207L228.137 485.263L229.165 484.235L230.193 482.179H231.22ZM205.522 485.263C205.522 485.948 205.18 486.291 204.494 486.291L205.522 485.263ZM214.774 486.291H215.801V488.347L214.774 486.291ZM204.494 487.319C204.494 488.689 203.809 489.374 202.438 489.374L204.494 487.319ZM201.41 490.402C202.096 490.402 202.438 490.402 202.438 490.402C202.438 489.717 202.438 489.374 202.438 489.374C202.438 490.06 202.096 490.402 201.41 490.402ZM561.186 491.43C560.501 491.43 559.816 491.43 559.13 491.43C559.13 490.745 559.473 490.06 560.158 489.374L561.186 491.43ZM200.383 491.43C200.383 490.745 200.725 490.402 201.41 490.402C201.41 491.088 201.068 491.43 200.383 491.43ZM207.578 492.458V491.43V492.458ZM206.55 493.486C205.865 492.801 205.865 492.458 206.55 492.458H207.578L206.55 493.486ZM205.522 494.514H204.494L205.522 493.486V494.514ZM204.494 494.514C205.18 495.199 204.837 496.227 203.466 497.598C201.41 498.283 200.383 498.969 200.383 499.654C198.327 500.339 196.613 502.052 195.243 504.793V502.738L191.131 504.793L194.215 502.738C194.9 502.738 195.243 502.052 195.243 500.682H196.271C199.012 497.941 200.383 496.57 200.383 496.57L204.494 494.514ZM200.383 500.682C199.697 500.682 199.355 500.682 199.355 500.682C200.04 499.996 200.383 499.654 200.383 499.654V500.682ZM202.438 500.682C202.438 500.682 202.096 501.024 201.41 501.71C201.41 501.71 201.41 501.367 201.41 500.682H202.438ZM215.801 500.682C215.801 502.738 214.431 503.766 211.69 503.766L215.801 500.682ZM206.55 503.766V502.738V503.766ZM205.522 504.793C204.837 504.108 204.837 503.766 205.522 503.766H206.55L205.522 504.793ZM210.662 505.821C209.977 505.821 209.977 505.479 210.662 504.793L211.69 503.766C211.69 503.766 211.69 504.108 211.69 504.793C212.375 504.793 212.375 504.793 211.69 504.793C211.69 505.479 211.347 505.821 210.662 505.821ZM208.606 506.849C207.921 506.164 207.921 505.821 208.606 505.821H209.634C209.634 506.507 209.291 506.849 208.606 506.849ZM254.863 508.905C252.807 510.961 251.436 511.646 250.751 510.961L252.807 509.933L254.863 508.905ZM297.008 510.961C296.323 510.961 295.98 510.618 295.98 509.933H297.008V510.961ZM281.589 510.961C281.589 510.961 281.589 511.304 281.589 511.989C282.274 511.989 282.274 511.989 281.589 511.989V510.961ZM225.053 518.157C225.053 518.842 224.71 519.184 224.025 519.184C223.34 519.87 223.34 520.555 224.025 521.24L221.969 522.268V521.24C221.969 522.611 221.626 523.296 220.941 523.296C219.571 523.296 218.543 523.639 217.857 524.324C220.598 521.583 221.969 520.212 221.969 520.212L225.053 518.157ZM224.025 522.268V521.24H225.053V522.268H224.025ZM229.165 528.436C229.165 527.065 229.165 526.723 229.165 527.408C229.85 528.093 230.193 528.436 230.193 528.436H229.165ZM225.053 531.52C225.053 530.149 226.081 529.121 228.137 528.436L225.053 531.52ZM463.533 533.576H464.561L463.533 535.631V533.576ZM461.477 537.687C461.477 537.002 461.82 536.659 462.505 536.659V537.687C461.82 538.373 461.477 538.373 461.477 537.687ZM258.975 538.715C259.66 538.715 260.003 538.373 260.003 537.687V539.743H257.947C257.947 539.058 258.289 538.715 258.975 538.715ZM217.857 540.771C217.857 539.4 218.543 538.715 219.913 538.715L217.857 540.771ZM545.767 544.883C545.767 543.512 545.425 542.484 544.739 541.799C544.054 541.114 544.054 540.428 544.739 539.743L545.767 541.799C547.138 542.484 547.138 543.512 545.767 544.883ZM479.98 541.799C479.294 541.799 478.952 541.456 478.952 540.771H479.98V541.799ZM220.941 543.855C220.941 543.17 221.284 543.17 221.969 543.855L220.941 545.911V543.855ZM463.533 546.939C464.903 546.939 465.589 547.967 465.589 550.022C464.218 550.022 463.533 548.994 463.533 546.939ZM560.158 547.967V546.939V547.967ZM575.577 548.994C574.892 549.68 574.892 550.365 575.577 551.05V553.106C574.892 552.421 574.549 551.393 574.549 550.022L573.521 547.967L575.577 548.994ZM497.455 560.302C496.769 558.931 497.112 557.561 498.483 556.19L496.427 555.162L495.399 556.19C496.769 554.819 496.769 553.791 495.399 553.106C494.028 551.736 493.343 550.708 493.343 550.022H492.315L490.259 551.05C489.574 551.736 489.574 552.421 490.259 553.106L491.287 555.162L492.315 557.218C493.685 557.218 494.713 557.561 495.399 558.246C496.769 559.616 497.455 560.302 497.455 560.302ZM512.874 554.134C512.874 556.19 513.216 557.561 513.901 558.246C513.216 558.931 512.874 558.589 512.874 557.218L510.818 554.134V553.106H511.846C511.16 551.736 510.818 551.393 510.818 552.078C511.503 552.078 512.188 552.764 512.874 554.134ZM229.165 558.246C229.165 559.616 228.822 560.302 228.137 560.302L229.165 558.246ZM510.818 575.721H511.846V576.749H510.818V575.721ZM555.019 580.86C554.333 580.86 554.333 580.518 555.019 579.832C555.704 579.832 555.704 580.175 555.019 580.86C555.019 581.546 555.019 581.888 555.019 581.888V580.86ZM565.298 581.888C564.613 581.888 564.27 581.546 564.27 580.86H565.298V581.888ZM545.767 582.916C545.767 584.287 546.11 584.972 546.795 584.972L547.823 587.028H546.795C547.481 587.713 547.823 588.741 547.823 590.112L546.795 592.168V588.056C545.425 583.944 544.739 581.888 544.739 581.888C545.425 581.888 545.767 582.231 545.767 582.916ZM525.209 582.916C527.265 583.601 527.607 586 526.237 590.112C524.866 588.741 524.866 587.371 526.237 586C526.237 584.629 525.894 583.601 525.209 582.916ZM546.795 584.972C546.795 583.601 547.481 582.916 548.851 582.916L547.823 584.972V583.944L546.795 584.972ZM555.019 583.944C556.389 583.944 557.075 585.657 557.075 589.084L555.019 583.944ZM507.734 589.084C507.049 589.084 506.706 588.741 506.706 588.056H507.734V589.084ZM513.901 590.112C513.901 589.426 513.901 589.084 513.901 589.084C514.587 589.769 514.929 590.454 514.929 591.14C514.244 591.825 513.901 591.482 513.901 590.112ZM528.292 592.168C528.292 592.853 527.95 592.853 527.265 592.168L526.237 590.112H527.265L528.292 592.168ZM546.795 592.168C547.481 592.168 547.823 592.168 547.823 592.168C547.823 592.853 547.823 593.196 547.823 593.196C547.823 593.196 547.823 592.853 547.823 592.168C547.823 592.168 547.481 592.168 546.795 592.168ZM515.957 593.196V594.223L514.929 593.196H515.957ZM563.242 597.307L562.214 593.196L563.242 597.307ZM509.79 594.223C511.16 595.594 511.846 596.279 511.846 596.279C511.16 596.965 510.475 597.307 509.79 597.307C509.79 597.307 510.132 596.965 510.818 596.279L509.79 594.223ZM520.069 603.475C520.069 607.587 521.097 609.985 523.153 610.67L521.097 611.698C521.782 612.384 522.125 613.069 522.125 613.754C522.81 615.125 522.81 616.153 522.125 616.838C521.44 616.153 521.097 614.782 521.097 612.726C521.097 612.041 520.412 611.013 519.041 609.642C519.726 609.642 520.069 609.3 520.069 608.614C518.698 607.244 518.013 604.845 518.013 601.419L515.957 594.223C517.328 595.594 518.013 596.965 518.013 598.335C518.013 601.076 518.698 602.447 520.069 602.447V603.475ZM528.292 594.223C528.292 594.909 528.635 595.251 529.32 595.251C528.635 595.937 528.292 595.937 528.292 595.251V594.223ZM525.209 597.307L524.181 596.279L525.209 597.307ZM525.209 598.335C524.523 598.335 524.523 597.993 525.209 597.307V598.335ZM563.242 599.363C563.927 600.048 564.27 601.076 564.27 602.447L563.242 600.391V599.363ZM566.326 600.391C565.641 600.391 565.298 600.048 565.298 599.363L566.326 600.391ZM570.438 600.391C570.438 601.076 569.752 601.076 568.382 600.391C567.697 600.391 567.697 600.048 568.382 599.363L570.438 600.391Z" fill="white"/>
</svg>
